<svg xmlns="http://www.w3.org/2000/svg" width="92" height="81" fill="none" viewBox="0 0 92 81">
  <path fill="#563D7C" d="M91.117 67.376c0 7.411-6.834 13.475-15.187 13.475H15.186C6.834 80.851 0 74.787 0 67.376v-53.9C0 6.063 6.834 0 15.186 0h60.745c8.352 0 15.186 6.064 15.186 13.475v53.9Z"/>
  <path fill="#fff" d="M24.759 17.57H50.59c4.765 0 8.59.965 11.464 2.907 2.874 1.942 4.318 4.862 4.318 8.785 0 2.378-.655 4.413-1.965 6.104-1.31 1.69-3.186 3.012-5.628 3.937v.132c3.275.62 5.762 1.995 7.444 4.122 1.683 2.14 2.531 4.808 2.531 8.032 0 1.85-.372 3.58-1.117 5.179-.744 1.611-1.905 2.999-3.498 4.161-1.593 1.163-3.618 2.087-6.104 2.774-2.487.687-5.435 1.03-8.86 1.03H24.76V17.572Zm9.305 19.751H49.25c2.234 0 4.095-.555 5.584-1.69 1.488-1.137 2.233-2.749 2.233-4.863 0-2.378-.67-4.055-2.01-5.02-1.34-.964-3.276-1.453-5.807-1.453H34.064v13.026Zm0 20.675h16.452c2.829 0 5.032-.647 6.58-1.955 1.564-1.295 2.353-3.144 2.353-5.522 0-2.338-.774-4.122-2.352-5.39-1.579-1.268-3.752-1.876-6.581-1.876H34.064v14.743Z"/>
</svg>
