<svg xmlns="http://www.w3.org/2000/svg" width="70" height="100" fill="none" viewBox="0 0 70 100">
  <path fill="#0ACF83" d="M17.375 100c9.588 0 17.37-7.467 17.37-16.667V66.667h-17.37c-9.588 0-17.37 7.466-17.37 16.666S7.788 100 17.376 100Z"/>
  <path fill="#A259FF" d="M.006 50c0-9.2 7.781-16.667 17.37-16.667h17.369v33.334h-17.37C7.787 66.667.005 59.2.005 50Z"/>
  <path fill="#F24E1E" d="M.004 16.667C.004 7.467 7.785 0 17.374 0h17.369v33.333h-17.37c-9.588 0-17.37-7.466-17.37-16.666Z"/>
  <path fill="#FF7262" d="M34.746 0h17.37c9.587 0 17.369 7.467 17.369 16.667 0 9.2-7.782 16.666-17.37 16.666h-17.37V0Z"/>
  <path fill="#1ABCFE" d="M69.485 50c0 9.2-7.782 16.667-17.37 16.667-9.588 0-17.37-7.467-17.37-16.667 0-9.2 7.782-16.667 17.37-16.667 9.588 0 17.37 7.467 17.37 16.667Z"/>
</svg>
