<svg xmlns="http://www.w3.org/2000/svg" width="47" height="98" fill="none" viewBox="0 0 47 98">
  <path fill="#10AA50" d="M45.994 38.745C40.5 16.12 29.032 10.095 26.122 5.837 24.54 3.521 22.927 0 22.927 0c-.157 2.007-.437 3.278-2.272 4.803C16.981 7.86 1.365 19.735.054 45.443-1.17 69.41 18.928 84.194 21.599 85.72c2.04.937 4.54.018 5.734-.84 9.685-6.208 22.936-22.758 18.65-46.136"/>
  <path fill="#B8C4C2" d="M23.76 72.954c-.504 5.935-.867 9.39-2.15 12.774 0 0 .846 5.648 1.434 11.632h2.095a102.31 102.31 0 0 1 2.286-12.53c-2.714-1.243-3.562-6.67-3.665-11.876Z"/>
  <path fill="#12924F" d="M27.423 84.834c-2.743-1.182-3.536-6.718-3.658-11.88.676-8.51.871-17.047.585-25.576-.143-4.475.072-41.454-1.18-46.868.507 1.06 1.73 3.548 2.953 5.325 2.922 4.26 14.38 10.285 19.87 32.912 4.28 23.317-8.892 39.84-18.57 46.087Z"/>
</svg>
