<svg xmlns="http://www.w3.org/2000/svg" width="116" height="100" fill="none" viewBox="0 0 116 100">
  <path fill="#00546B" d="M106.713 77.343c-6.304-.138-11.19.416-15.287 1.94-1.182.416-3.073.416-3.23 1.733.63.554.709 1.455 1.26 2.217.947 1.385 2.6 3.256 4.098 4.226 1.654 1.109 3.31 2.217 5.042 3.187 3.074 1.663 6.541 2.633 9.535 4.296 1.734.97 3.466 2.217 5.2 3.257.867.553 1.418 1.455 2.522 1.801v-.208c-.552-.624-.71-1.524-1.261-2.217-.787-.693-1.576-1.317-2.364-2.01-2.285-2.701-5.121-5.057-8.195-6.997-2.521-1.525-8.037-3.603-9.061-6.167l-.158-.138c1.734-.139 3.782-.693 5.437-1.109 2.68-.624 5.122-.485 7.88-1.108 1.26-.278 2.521-.624 3.782-.97v-.624c-1.418-1.247-2.443-2.91-3.94-4.088-4.018-3.049-8.431-6.028-13.001-8.522-2.443-1.386-5.595-2.287-8.195-3.464-.945-.417-2.521-.624-3.073-1.317-1.418-1.524-2.206-3.533-3.23-5.335-2.285-3.811-4.492-8.037-6.462-12.056-1.417-2.702-2.284-5.404-4.018-7.898C61.878 23.993 53.054 16.857 39.5 9.859c-2.915-1.455-6.382-2.079-10.085-2.84-1.97-.07-3.94-.209-5.91-.278-1.26-.485-2.521-1.801-3.625-2.425C15.39 1.82 3.807-3.583.497 3.554-1.63 8.057 3.65 12.49 5.461 14.778c1.34 1.594 3.073 3.395 4.019 5.197.551 1.177.709 2.425 1.26 3.672 1.261 3.048 2.443 6.443 4.098 9.284.867 1.455 1.812 2.98 2.915 4.296.63.762 1.733 1.108 1.97 2.356-1.103 1.385-1.182 3.464-1.813 5.196-2.836 7.83-1.733 17.53 2.286 23.28 1.26 1.732 4.255 5.543 8.273 4.088 3.546-1.247 2.758-5.197 3.782-8.66.237-.833.08-1.387.552-1.94v.138c1.103 1.94 2.206 3.81 3.23 5.75 2.443 3.395 6.698 6.93 10.243 9.285 1.892 1.247 3.39 3.395 5.753 4.157v-.208h-.158c-.473-.624-1.182-.9-1.812-1.386-1.418-1.247-2.994-2.771-4.097-4.157-3.31-3.88-6.225-8.175-8.825-12.61-1.261-2.148-2.364-4.504-3.389-6.651-.473-.832-.473-2.079-1.26-2.494-1.182 1.523-2.915 2.84-3.783 4.711-1.496 2.98-1.654 6.651-2.206 10.462-.315.07-.157 0-.315.139-2.521-.555-3.388-2.84-4.334-4.781-2.364-4.92-2.758-12.818-.709-18.5.552-1.455 2.916-6.027 1.97-7.413-.472-1.317-2.049-2.079-2.915-3.118-1.024-1.317-2.128-2.98-2.837-4.434-1.891-3.88-2.837-8.176-4.885-12.056-.946-1.802-2.6-3.672-3.94-5.335-1.497-1.87-3.152-3.187-4.334-5.405-.393-.762-.945-2.009-.315-2.84.158-.554.473-.762 1.103-.9 1.025-.763 3.94.207 4.964.623 2.916 1.038 5.358 2.009 7.801 3.464 1.103.693 2.285 2.01 3.703 2.356h1.655c2.522.484 5.358.138 7.722.762 4.177 1.177 7.958 2.91 11.347 4.78 10.322 5.751 18.831 13.927 24.584 23.697.945 1.593 1.339 3.048 2.206 4.71 1.655 3.396 3.703 6.86 5.358 10.186 1.654 3.256 3.23 6.582 5.594 9.285 1.182 1.454 5.91 2.216 8.037 2.979 1.576.623 4.019 1.178 5.437 1.94 2.679 1.454 5.358 3.117 7.88 4.711 1.261.831 5.2 2.564 5.437 3.949Z"/>
</svg>
