<svg xmlns="http://www.w3.org/2000/svg" width="128" height="100" fill="none" viewBox="0 0 128 100">
  <path fill="#CF649A" d="M109.974 57.385c-4.427.026-8.261 1.146-11.476 2.813-1.188-2.474-2.375-4.636-2.572-6.25-.223-1.875-.495-3.021-.223-5.26.272-2.24 1.509-5.417 1.509-5.678-.025-.234-.273-1.38-2.82-1.406-2.547-.026-4.749.52-4.996 1.224a31.138 31.138 0 0 0-1.064 3.984c-.445 2.448-5.095 11.12-7.741 15.677-.866-1.77-1.608-3.333-1.756-4.583-.223-1.875-.495-3.021-.223-5.26.272-2.24 1.509-5.417 1.509-5.677-.025-.235-.272-1.38-2.82-1.407-2.547-.026-4.748.521-4.996 1.224-.247.703-.519 2.37-1.063 3.985-.52 1.614-6.703 16.093-8.31 19.87a82.407 82.407 0 0 1-2.053 4.505c-.52 1.041-.025.078-.075.182-.445.885-.692 1.38-.692 1.38v.026c-.346.651-.718 1.276-.89 1.276-.125 0-.372-1.745.048-4.14.916-5.026 3.142-12.865 3.117-13.151 0-.13.42-1.51-1.435-2.214-1.805-.703-2.448.469-2.597.469-.148 0-.272.417-.272.417s2.004-8.828-3.833-8.828c-3.66 0-8.706 4.193-11.204 8.02-1.583.912-4.947 2.839-8.509 4.897-1.36.78-2.77 1.614-4.105 2.37l-.272-.314c-7.074-7.942-20.158-13.567-19.614-24.245.198-3.88 1.484-14.114 25.13-26.51 19.366-10.156 34.873-7.37 37.57-1.172 3.833 8.854-8.287 25.313-28.42 27.682-7.666.912-11.698-2.213-12.712-3.385-1.064-1.224-1.212-1.276-1.608-1.042-.643.365-.247 1.459 0 2.11.594 1.64 3.067 4.557 7.272 6.015 3.685 1.277 12.688 1.98 23.57-2.447 12.194-4.974 21.716-18.777 18.922-30.313C77.425.484 58.925-3.37 41.438 3.167c-10.413 3.906-21.69 10-29.803 17.994C1.989 30.641.455 38.921 1.098 42.36 3.35 54.625 19.401 62.62 25.831 68.531c-.321.182-.618.364-.89.52-3.215 1.667-15.458 8.412-18.525 15.547C2.953 92.672 6.96 98.48 9.63 99.26c8.261 2.422 16.72-1.927 21.296-9.088 4.55-7.162 4.006-16.459 1.904-20.703l-.075-.157 2.523-1.562a149.82 149.82 0 0 1 4.65-2.76c-.791 2.265-1.36 4.947-1.657 8.853-.346 4.584 1.435 10.521 3.785 12.865 1.038 1.015 2.275 1.042 3.042 1.042 2.72 0 3.957-2.37 5.317-5.209 1.682-3.463 3.166-7.474 3.166-7.474s-1.855 10.86 3.215 10.86c1.856 0 3.71-2.526 4.551-3.829v.027s.05-.079.149-.26c.104-.162.203-.327.297-.495v-.053c.742-1.354 2.399-4.453 4.872-9.583 3.19-6.614 6.258-14.896 6.258-14.896s.296 2.032 1.211 5.365c.544 1.98 1.731 4.14 2.647 6.25a97.491 97.491 0 0 1-1.188 1.719l.025.026a73.501 73.501 0 0 1-1.954 2.604c-2.522 3.177-5.54 6.797-5.935 7.839-.47 1.224-.371 2.135.544 2.865.668.52 1.855.624 3.116.52 2.275-.156 3.859-.755 4.65-1.12a15.83 15.83 0 0 0 4.007-2.213c2.473-1.927 3.982-4.661 3.833-8.307-.074-2.005-.692-3.985-1.459-5.86.223-.338.445-.677.668-1.041 3.908-6.016 6.925-12.63 6.925-12.63s.297 2.03 1.212 5.364c.47 1.693 1.41 3.542 2.25 5.365-3.66 3.151-5.96 6.797-6.751 9.193-1.46 4.427-.322 6.432 1.83 6.9.964.209 2.35-.26 3.388-.729a15.08 15.08 0 0 0 4.28-2.317c2.473-1.927 4.847-4.61 4.723-8.23-.074-1.666-.494-3.307-1.063-4.87 3.116-1.353 7.147-2.135 12.267-1.483 11.007 1.354 13.183 8.593 12.763 11.614-.42 3.021-2.721 4.688-3.488 5.208-.766.495-1.014.678-.939 1.042.098.547.445.52 1.113.417.915-.156 5.787-2.474 5.985-8.047.297-7.162-6.159-14.975-17.61-14.897Zm-84.885 30.13c-3.635 4.193-8.755 5.782-10.932 4.427-2.35-1.432-1.434-7.604 3.043-12.057 2.72-2.708 6.257-5.208 8.582-6.745.52-.338 1.31-.833 2.25-1.432.15-.104.248-.156.248-.156.173-.104.371-.235.569-.365 1.657 6.355.074 11.927-3.76 16.328ZM51.678 68.48c-1.262 3.255-3.933 11.615-5.54 11.146-1.386-.39-2.227-6.719-.273-12.969.99-3.151 3.092-6.901 4.328-8.36 2.004-2.343 4.18-3.125 4.725-2.161.643 1.25-2.449 10.313-3.24 12.344Zm21.938 11.042c-.544.286-1.039.494-1.261.338-.174-.104.222-.494.222-.494s2.745-3.1 3.834-4.532c.618-.833 1.36-1.796 2.151-2.89v.312c0 3.75-3.412 6.25-4.946 7.266Zm16.917-4.063c-.395-.312-.346-1.276.99-4.297.52-1.198 1.706-3.203 3.76-5.104.246.781.395 1.536.37 2.24-.024 4.687-3.19 6.432-5.12 7.161Z"/>
</svg>
