<svg xmlns="http://www.w3.org/2000/svg" width="48" height="48" fill="none" viewBox="0 0 26 24">
  <ellipse cx="12.955" cy="11.783" fill="#0B94EB" rx="12.208" ry="11.488"/>
  <g clip-path="url(#a)">
    <path fill="#232E35" d="M10.866 17.48a.555.555 0 0 0-.064-.258.625.625 0 0 0-.181-.21.714.714 0 0 0-.264-.12.761.761 0 0 0-.296-.01c-.893.146-2.02.168-2.32-.584a3.549 3.549 0 0 0-1.252-1.47.835.835 0 0 1-.113-.066.624.624 0 0 0-.25-.285.739.739 0 0 0-.385-.108h-.003a.725.725 0 0 0-.481.177.578.578 0 0 0-.201.429c-.003.496.553.814.778.921.266.239.48.52.63.828.249.623.97 1.568 3.045 1.446l.002.06.003.163c0 .162.072.316.2.43a.726.726 0 0 0 .482.179c.18 0 .354-.064.482-.178a.578.578 0 0 0 .2-.43l-.004-.195a22.272 22.272 0 0 1-.008-.719Zm7.273-9.207a3.16 3.16 0 0 0 .062-.256c.11-.678.014-1.37-.279-2.004a.612.612 0 0 0-.166-.218.704.704 0 0 0-.253-.135c-.243-.073-1.14-.217-2.853.76a10.573 10.573 0 0 0-4.332 0c-1.707-.963-2.599-.832-2.84-.763a.703.703 0 0 0-.26.134.61.61 0 0 0-.17.221 3.458 3.458 0 0 0-.275 2.043c.017.078.035.15.053.216a3.552 3.552 0 0 0-.855 2.33 4.39 4.39 0 0 0 .029.562c.227 2.802 2.273 3.643 3.698 3.932-.03.076-.057.157-.08.243a.553.553 0 0 0 .079.46.682.682 0 0 0 .42.276c.175.038.36.013.515-.07a.62.62 0 0 0 .31-.374.993.993 0 0 1 .319-.535.607.607 0 0 0 .207-.293.545.545 0 0 0-.006-.346.609.609 0 0 0-.216-.288.725.725 0 0 0-.358-.135c-2.355-.24-3.377-1.097-3.53-2.982a3.375 3.375 0 0 1-.024-.45c-.01-.598.21-1.181.627-1.65a1.62 1.62 0 0 1 .134-.141.585.585 0 0 0 .162-.296.548.548 0 0 0-.034-.328 1.893 1.893 0 0 1-.106-.338 2.232 2.232 0 0 1 .053-.983 5.42 5.42 0 0 1 1.647.718.768.768 0 0 0 .564.08 8.962 8.962 0 0 1 4.21.001.766.766 0 0 0 .565-.084 5.435 5.435 0 0 1 1.64-.724c.09.313.111.64.06.96-.025.127-.063.25-.115.37a.547.547 0 0 0-.034.328.58.58 0 0 0 .162.296c.053.053.105.11.152.163a2.34 2.34 0 0 1 .615 1.629c.002.158-.007.316-.025.473-.15 1.86-1.177 2.717-3.543 2.958a.725.725 0 0 0-.357.136.61.61 0 0 0-.216.287.546.546 0 0 0-.006.347.604.604 0 0 0 .207.293c.17.149.281.343.318.553.046.163.068.33.063.498v1.421c-.007.394-.007.69-.007.825 0 .162.072.316.2.43a.725.725 0 0 0 .482.179.726.726 0 0 0 .482-.178.577.577 0 0 0 .2-.43c0-.133 0-.422.007-.816v-1.43c.005-.27-.03-.538-.106-.799a2.384 2.384 0 0 0-.079-.253c1.037-.154 1.98-.631 2.66-1.348.68-.715 1.053-1.624 1.053-2.562.022-.194.033-.39.031-.584a3.475 3.475 0 0 0-.86-2.33Z"/>
  </g>
  <defs>
    <clipPath id="a">
      <path fill="#fff" d="M4 5h15v14H4z"/>
    </clipPath>
  </defs>
</svg>
