<svg xmlns="http://www.w3.org/2000/svg" width="48" height="48" fill="none" viewBox="0 0 25 24">
  <g filter="url(#a)">
    <ellipse cx="12.648" cy="11.783" fill="#0B94EB" rx="12.208" ry="11.488"/>
  </g>
  <g clip-path="url(#b)">
    <path fill="#000" d="M18.243 7.474a5.697 5.697 0 0 1-1.597.732 2.306 2.306 0 0 0-1.167-.673 2.414 2.414 0 0 0-1.365.077c-.436.157-.81.436-1.073.799a2.05 2.05 0 0 0-.393 1.233v.479a5.706 5.706 0 0 1-2.579-.543 5.343 5.343 0 0 1-2-1.626s-2.034 4.309 2.544 6.223a6.195 6.195 0 0 1-3.56.958c4.577 2.393 10.173 0 10.173-5.505 0-.133-.014-.266-.041-.397.52-.482.886-1.09 1.058-1.757Z"/>
  </g>
  <defs>
    <clipPath id="b">
      <path fill="#fff" d="M6.544 6.039h12.208v11.488H6.544z"/>
    </clipPath>
    <filter id="a" width="108.416" height="106.977" x="-41.56" y="-41.706" color-interpolation-filters="sRGB" filterUnits="userSpaceOnUse">
      <feFlood flood-opacity="0" result="BackgroundImageFix"/>
      <feGaussianBlur in="BackgroundImageFix" stdDeviation="21"/>
      <feComposite in2="SourceAlpha" operator="in" result="effect1_backgroundBlur_85_16"/>
      <feBlend in="SourceGraphic" in2="effect1_backgroundBlur_85_16" result="shape"/>
      <feColorMatrix in="SourceAlpha" result="hardAlpha" values="0 0 0 0 0 0 0 0 0 0 0 0 0 0 0 0 0 0 127 0"/>
      <feOffset dx="-5" dy="-5"/>
      <feGaussianBlur stdDeviation="125"/>
      <feComposite in2="hardAlpha" k2="-1" k3="1" operator="arithmetic"/>
      <feColorMatrix values="0 0 0 0 1 0 0 0 0 1 0 0 0 0 1 0 0 0 0.02 0"/>
      <feBlend in2="shape" result="effect2_innerShadow_85_16"/>
    </filter>
  </defs>
</svg>
