<svg xmlns="http://www.w3.org/2000/svg" width="48px" height="48px" viewBox="0 0 25 24">

  <rect x="2.5" y="2.1" width="20" height="20" fill="#0B94EB" rx="5" ry="5"/>

  <path fill="#000" d="M18.243 7.474a5.697 5.697 0 0 1-1.597.732 2.306 2.306 0 0 0-1.167-.673 2.414 2.414 0 0 0-1.365.077c-.436.157-.81.436-1.073.799a2.05 2.05 0 0 0-.393 1.233v.479a5.706 5.706 0 0 1-2.579-.543 5.343 5.343 0 0 1-2-1.626s-2.034 4.309 2.544 6.223a6.195 6.195 0 0 1-3.56.958c4.577 2.393 10.173 0 10.173-5.505 0-.133-.014-.266-.041-.397.52-.482.886-1.09 1.058-1.757Z"/>

</svg>
